<?xml version="1.0" encoding="iso-8859-1"?>
<!-- Uploaded to: SVG Repo, www.svgrepo.com, Generator: SVG Repo Mixer Tools -->
<svg version="1.1" id="Layer_1" xmlns="http://www.w3.org/2000/svg" xmlns:xlink="http://www.w3.org/1999/xlink" 
	 viewBox="0 0 512 512" xml:space="preserve">
<path style="fill:#E8E8E8;" d="M462.932,273.761L462.932,273.761c-25.11,0-48.931-11.126-65.045-30.384l0,0
	c-13.643-16.302-33.809-25.722-55.067-25.722H117.989c-10.312,0-19.579-6.288-23.39-15.869l-25.549-64.231
	c-5.135-12.908-17.622-21.38-31.514-21.38H19.803C8.866,116.175,0,125.041,0,135.978v61.148
	c0,94.812,76.859,171.671,171.671,171.671h294.361c25.388,0,45.968-20.581,45.968-45.968l0,0"/>
<path id="SVGCleanerId_0" style="fill:#E8E8E8;" d="M512,322.829L512,322.829c0,25.388-20.581,45.968-45.968,45.968H171.671
	C76.859,368.797,0,291.938,0,197.126v-61.148c0-10.936,8.866-19.803,19.803-19.803h17.734c13.892,0,26.379,8.471,31.514,21.38
	l25.549,64.231c3.811,9.58,13.079,15.869,23.39,15.869H342.82c21.258,0,41.424,9.419,55.067,25.722l0,0
	c16.115,19.257,39.935,30.384,65.045,30.384l0,0l0,0C490.032,273.761,512,295.73,512,322.829L512,322.829z"/>
<g>
	<path id="SVGCleanerId_0_1_" style="fill:#E8E8E8;" d="M512,322.829L512,322.829c0,25.388-20.581,45.968-45.968,45.968H171.671
		C76.859,368.797,0,291.938,0,197.126v-61.148c0-10.936,8.866-19.803,19.803-19.803h17.734c13.892,0,26.379,8.471,31.514,21.38
		l25.549,64.231c3.811,9.58,13.079,15.869,23.39,15.869H342.82c21.258,0,41.424,9.419,55.067,25.722l0,0
		c16.115,19.257,39.935,30.384,65.045,30.384l0,0l0,0C490.032,273.761,512,295.73,512,322.829L512,322.829z"/>
</g>
<path style="fill:#333E48;" d="M397.887,243.377c-0.542-0.648-1.112-1.267-1.675-1.893h-53.554c-8.809,0-15.95,7.141-15.95,15.95
	c0,8.809,7.141,15.95,15.95,15.95h112.367C432.875,271.311,412.299,260.6,397.887,243.377z"/>
<path style="fill:#6DABE4;" d="M69.051,137.555c-5.135-12.908-17.622-21.38-31.514-21.38H19.803C8.866,116.175,0,125.041,0,135.978
	v61.148c0,20.733,3.676,40.607,10.41,59.006l6.413-2.965c13.391-10.715,21.185-26.935,21.185-44.085v-33.676
	c0-13.302,10.783-24.085,24.085-24.085h12.433L69.051,137.555z"/>
<path style="opacity:0.1;enable-background:new    ;" d="M483.254,347.48H188.893c-94.812,0-171.671-76.859-171.671-171.671v-59.447
	C7.508,117.63,0,125.918,0,135.978v61.148c0,94.812,76.859,171.671,171.671,171.671h294.361c19.411,0,36-12.038,42.74-29.05
	C501.472,344.629,492.697,347.48,483.254,347.48z"/>
<g>
	<path style="fill:#333E48;" d="M264.972,273.385h7.557c5.285,0,9.57-4.285,9.57-9.57v-12.76c0-5.285-4.285-9.57-9.57-9.57h-7.557
		c-5.285,0-9.57,4.285-9.57,9.57v12.76C255.403,269.1,259.687,273.385,264.972,273.385z"/>
	<path style="fill:#333E48;" d="M204.171,273.385h7.557c5.285,0,9.57-4.285,9.57-9.57v-12.76c0-5.285-4.285-9.57-9.57-9.57h-7.557
		c-5.285,0-9.57,4.285-9.57,9.57v12.76C194.6,269.1,198.885,273.385,204.171,273.385z"/>
	<path style="fill:#333E48;" d="M143.369,273.385h7.557c5.285,0,9.57-4.285,9.57-9.57v-12.76c0-5.285-4.285-9.57-9.57-9.57h-7.557
		c-5.285,0-9.57,4.285-9.57,9.57v12.76C133.799,269.1,138.083,273.385,143.369,273.385z"/>
	<path style="fill:#333E48;" d="M82.566,273.385h7.557c5.285,0,9.57-4.285,9.57-9.57v-12.76c0-5.285-4.285-9.57-9.57-9.57h-7.557
		c-5.285,0-9.57,4.285-9.57,9.57v12.76C72.997,269.1,77.282,273.385,82.566,273.385z"/>
</g>
<path style="fill:#6DABE4;" d="M246.26,341.636h-49.655c-7.936,0-14.37,6.434-14.37,14.37v25.444c0,7.936,6.434,14.37,14.37,14.37
	h49.655c7.787,0,14.1-6.313,14.1-14.1v-25.982C260.36,347.949,254.047,341.636,246.26,341.636z"/>
<g style="opacity:0.15;">
	<path d="M256.887,387.248H207.23c-7.936,0-14.37-6.434-14.37-14.37v-25.444c0-1.966,0.397-3.84,1.112-5.547
		c-6.678,1.236-11.739,7.082-11.739,14.118v25.444c0,7.936,6.434,14.37,14.37,14.37h49.656c5.909,0,10.962-3.639,13.059-8.795
		C258.526,387.162,257.717,387.248,256.887,387.248z"/>
</g>
<rect x="224.039" y="341.64" style="fill:#333E48;" width="16.769" height="54.185"/>
<path style="fill:#FFFFFF;" d="M264.864,303.405H177.73c-10.557,0-19.115,8.559-19.115,19.115l0,0
	c0,10.557,8.559,19.115,19.115,19.115h87.134c10.557,0,19.115-8.559,19.115-19.115l0,0
	C283.979,311.964,275.421,303.405,264.864,303.405z"/>
<path style="opacity:0.2;enable-background:new    ;" d="M274.179,333.066h-87.134c-10.557,0-19.115-8.559-19.115-19.115
	c0-3.251,0.817-6.309,2.248-8.989c-6.8,2.929-11.564,9.686-11.564,17.56c0,10.557,8.559,19.115,19.115,19.115h87.134
	c7.307,0,13.65-4.103,16.867-10.126C279.413,332.508,276.862,333.066,274.179,333.066z"/>
</svg>