<svg id="visual" viewBox="0 0 675 900" width="675" height="900" xmlns="http://www.w3.org/2000/svg" xmlns:xlink="http://www.w3.org/1999/xlink" version="1.1"><path d="M0 263L12.5 262.7C25 262.3 50 261.7 75 264C100 266.3 125 271.7 150 275.5C175 279.3 200 281.7 225 283.5C250 285.3 275 286.7 300 280C325 273.3 350 258.7 375 258.3C400 258 425 272 450 273.5C475 275 500 264 525 265.2C550 266.3 575 279.7 600 280.2C625 280.7 650 268.3 662.5 262.2L675 256L675 0L662.5 0C650 0 625 0 600 0C575 0 550 0 525 0C500 0 475 0 450 0C425 0 400 0 375 0C350 0 325 0 300 0C275 0 250 0 225 0C200 0 175 0 150 0C125 0 100 0 75 0C50 0 25 0 12.5 0L0 0Z" fill="#4facf7"></path><path d="M0 185L12.5 185.3C25 185.7 50 186.3 75 187.3C100 188.3 125 189.7 150 194.8C175 200 200 209 225 209.3C250 209.7 275 201.3 300 201.7C325 202 350 211 375 213.3C400 215.7 425 211.3 450 208.8C475 206.3 500 205.7 525 203.3C550 201 575 197 600 196.3C625 195.7 650 198.3 662.5 199.7L675 201L675 0L662.5 0C650 0 625 0 600 0C575 0 550 0 525 0C500 0 475 0 450 0C425 0 400 0 375 0C350 0 325 0 300 0C275 0 250 0 225 0C200 0 175 0 150 0C125 0 100 0 75 0C50 0 25 0 12.5 0L0 0Z" fill="#008cff"></path><path d="M0 123L12.5 125.8C25 128.7 50 134.3 75 135.7C100 137 125 134 150 133.3C175 132.7 200 134.3 225 136C250 137.7 275 139.3 300 138C325 136.7 350 132.3 375 131C400 129.7 425 131.3 450 132.7C475 134 500 135 525 133.3C550 131.7 575 127.3 600 125.3C625 123.3 650 123.7 662.5 123.8L675 124L675 0L662.5 0C650 0 625 0 600 0C575 0 550 0 525 0C500 0 475 0 450 0C425 0 400 0 375 0C350 0 325 0 300 0C275 0 250 0 225 0C200 0 175 0 150 0C125 0 100 0 75 0C50 0 25 0 12.5 0L0 0Z" fill="#0066ff"></path></svg>